<svg width="126" height="125" viewBox="0 0 126 125" fill="none" xmlns="http://www.w3.org/2000/svg">
<circle cx="63" cy="62.5" r="62.5" fill="#FFE2E2"/>
<path d="M29.9121 40.4453H37.2651H96.0886" stroke="#FE3D3C" stroke-width="5" stroke-linecap="round" stroke-linejoin="round"/>
<path d="M88.7362 40.4403V91.9108C88.7362 93.861 87.9615 95.7312 86.5826 97.1102C85.2036 98.4891 83.3334 99.2638 81.3833 99.2638H44.6186C42.6684 99.2638 40.7982 98.4891 39.4193 97.1102C38.0403 95.7312 37.2656 93.861 37.2656 91.9108V40.4403M48.295 40.4403V33.0873C48.295 31.1372 49.0697 29.2669 50.4487 27.888C51.8276 26.5091 53.6979 25.7344 55.648 25.7344H70.3539C72.304 25.7344 74.1742 26.5091 75.5532 27.888C76.9321 29.2669 77.7068 31.1372 77.7068 33.0873V40.4403" stroke="#FE3D3C" stroke-width="5" stroke-linecap="round" stroke-linejoin="round"/>
<path d="M55.6484 58.8203V80.8791" stroke="#FE3D3C" stroke-width="5" stroke-linecap="round" stroke-linejoin="round"/>
<path d="M70.3535 58.8203V80.8791" stroke="#FE3D3C" stroke-width="5" stroke-linecap="round" stroke-linejoin="round"/>
</svg>
