<svg width="34" height="34" viewBox="0 0 34 34" fill="none" xmlns="http://www.w3.org/2000/svg">
<circle cx="17" cy="17" r="17" fill="#3C82F5" fill-opacity="0.15"/>
<g clip-path="url(#clip0_629_16601)">
<path d="M21.0911 9.63484C21.306 9.41994 21.5611 9.24948 21.8419 9.13319C22.1226 9.01689 22.4235 8.95703 22.7274 8.95703C23.0314 8.95703 23.3323 9.01689 23.613 9.13319C23.8938 9.24948 24.1489 9.41994 24.3638 9.63484C24.5787 9.84973 24.7492 10.1048 24.8655 10.3856C24.9818 10.6664 25.0416 10.9673 25.0416 11.2712C25.0416 11.5751 24.9818 11.876 24.8655 12.1568C24.7492 12.4376 24.5787 12.6927 24.3638 12.9076L13.3184 23.953L8.81836 25.1803L10.0456 20.6803L21.0911 9.63484Z" fill="#3C82F5" stroke="#3C82F5" stroke-width="2" stroke-linecap="round" stroke-linejoin="round"/>
</g>
<defs>
<clipPath id="clip0_629_16601">
<rect width="18" height="18" fill="white" transform="translate(8 8)"/>
</clipPath>
</defs>
</svg>
