<svg width="18" height="18" viewBox="0 0 18 18" fill="none" xmlns="http://www.w3.org/2000/svg">
<g clip-path="url(#clip0_629_1345)">
<path d="M11.488 17.1792C11.4356 17.1792 11.3832 17.1792 11.3243 17.1792C10.4243 17.1465 9.52432 16.8291 8.65214 16.2473C7.40605 15.4128 6.97486 13.8852 7.39295 11.8087C7.31114 11.7694 7.23914 11.7269 7.16386 11.6778C7.03594 11.8745 6.91823 12.0777 6.81123 12.2865C6.52977 12.8429 6.3825 13.4156 6.24505 13.9114C6.1305 14.3434 6.02905 14.7165 5.86541 15.0209C5.63714 15.4422 5.30005 15.6713 4.86805 15.7041C3.66123 15.7924 2.23514 14.926 1.47341 13.6406C1.06855 12.9607 0.86221 12.181 0.877773 11.3898C0.897409 10.4898 1.19523 9.58979 1.76714 8.70124C2.55259 7.48133 4.00977 7.01415 5.99959 7.33733C6.02905 7.2817 6.06177 7.22688 6.0945 7.1737C5.8668 7.01479 5.62994 6.86945 5.38514 6.73842C4.82795 6.44142 4.26341 6.28106 3.76432 6.14033C3.33559 6.01924 2.96332 5.91206 2.66223 5.74188C2.24332 5.50624 2.0175 5.16915 1.99459 4.7306C1.92586 3.52379 2.81932 2.11242 4.1145 1.37606C4.80027 0.979448 5.58434 0.785134 6.37595 0.815605C7.27595 0.848332 8.17595 1.16579 9.04814 1.74833C10.2353 2.54279 10.6845 3.97542 10.3572 5.90879C10.5155 5.98618 10.6676 6.07562 10.8121 6.17633C10.9478 5.96972 11.0721 5.75586 11.1844 5.5357C11.4691 4.97279 11.6197 4.40742 11.7571 3.9067C11.8717 3.4747 11.9731 3.10242 12.1368 2.79806C12.365 2.37588 12.7021 2.14351 13.1341 2.11406C14.341 2.0257 15.767 2.89297 16.5288 4.17833C16.9336 4.85795 17.14 5.63741 17.1244 6.42833C17.1048 7.32833 16.807 8.22833 16.235 9.11688C15.61 10.0881 14.5635 10.5822 13.1636 10.5822C12.7124 10.5797 12.2625 10.5359 11.8193 10.4513C11.7533 10.5752 11.679 10.6943 11.5968 10.8081C11.8306 10.9716 12.0741 11.1211 12.3258 11.2556C12.8821 11.5501 13.4483 11.7105 13.945 11.8512C14.3737 11.9723 14.7468 12.0803 15.047 12.2505C15.466 12.4861 15.6918 12.8232 15.7147 13.261C15.7834 14.4678 14.8908 15.8791 13.5956 16.6155C12.9528 16.9805 12.2271 17.1746 11.488 17.1792ZM7.04932 10.4841C7.17007 10.4834 7.28674 10.5278 7.37659 10.6084C7.59663 10.8045 7.85213 10.9567 8.12932 11.0568C8.24328 11.0979 8.338 11.1798 8.39524 11.2866C8.45249 11.3934 8.46822 11.5176 8.43941 11.6352C7.97877 13.5064 8.23405 14.782 9.20195 15.4259C11.002 16.6294 12.4199 16.1557 13.1039 15.7662C14.2125 15.1321 14.7689 14.0292 14.7296 13.3117C14.7296 13.2528 14.723 13.1939 14.5594 13.1022C14.3598 12.991 14.0423 12.8993 13.6725 12.7946C13.1562 12.6473 12.5115 12.4673 11.8643 12.1245C11.4129 11.878 10.9819 11.5956 10.5757 11.2801C10.5207 11.2372 10.4755 11.183 10.4431 11.1211C10.4107 11.0593 10.3918 10.9913 10.3878 10.9216C10.3838 10.8519 10.3946 10.7822 10.4197 10.717C10.4448 10.6519 10.4834 10.5928 10.5331 10.5438C10.7707 10.3133 10.9557 10.0342 11.0756 9.72561C11.1182 9.61588 11.1988 9.52511 11.3027 9.46984C11.4067 9.41457 11.527 9.39849 11.6418 9.42451C13.513 9.84997 14.7787 9.57179 15.4054 8.59651C16.5795 6.77524 16.0829 5.36879 15.6803 4.69133C15.0258 3.59251 13.9171 3.05497 13.2012 3.10897C13.1423 3.10897 13.0834 3.11879 12.995 3.2816C12.887 3.48124 12.802 3.80197 12.7005 4.17506C12.563 4.6946 12.3896 5.33933 12.0599 5.99306C11.841 6.41347 11.5896 6.81615 11.308 7.19742C11.2663 7.25488 11.2126 7.30248 11.1505 7.33684C11.0884 7.3712 11.0196 7.39148 10.9488 7.39624C10.8779 7.40123 10.8067 7.39096 10.7401 7.36612C10.6735 7.34128 10.6129 7.30245 10.5626 7.25224C10.3071 6.9932 9.99309 6.79931 9.64705 6.68688C9.53046 6.65008 9.43202 6.57069 9.37136 6.46454C9.31071 6.35839 9.29229 6.23328 9.31977 6.11415C9.69532 4.37797 9.42123 3.18751 8.50159 2.57224C6.69668 1.35888 5.28041 1.83588 4.59641 2.22206C3.49105 2.86106 2.9355 3.96233 2.97477 4.67824C2.97477 4.73715 2.98132 4.79606 3.14414 4.8877C3.34377 4.99897 3.66123 5.0906 4.03105 5.19533C4.54732 5.3426 5.19205 5.5226 5.83923 5.86624C6.26983 6.09873 6.68034 6.36665 7.0665 6.66724C7.11978 6.7072 7.16417 6.7578 7.19685 6.81583C7.22953 6.87386 7.24978 6.93805 7.25632 7.00433C7.26318 7.07039 7.25656 7.13715 7.23687 7.20057C7.21719 7.264 7.18483 7.32277 7.14177 7.37333C6.96994 7.57683 6.83408 7.80814 6.74005 8.05733C6.69879 8.16693 6.61971 8.25817 6.51709 8.31459C6.41446 8.371 6.29505 8.38887 6.18041 8.36497C4.40086 7.99515 3.19077 8.28315 2.58614 9.22815C1.41532 11.0568 1.91195 12.4632 2.3145 13.1399C2.96905 14.2387 4.07768 14.7762 4.79359 14.7231C4.8525 14.7231 4.91141 14.7132 4.99977 14.5496C5.10777 14.35 5.19286 14.0292 5.29432 13.657C5.43177 13.1366 5.60523 12.4927 5.93495 11.8382C6.1436 11.4371 6.38209 11.0523 6.64841 10.687C6.68861 10.6316 6.73994 10.5852 6.79912 10.5508C6.8583 10.5164 6.92402 10.4948 6.99205 10.4873C7.01168 10.4873 7.0305 10.4873 7.04686 10.4873L7.04932 10.4841Z" fill="#B9B8B8" stroke="#B9B8B8" stroke-width="0.5"/>
<path d="M8.71806 9.96524C8.97838 10.0347 9.25598 9.99919 9.48979 9.86651C9.7236 9.73383 9.89447 9.51485 9.9648 9.25775C10.0351 9.00064 9.99918 8.72648 9.86483 8.49556C9.73049 8.26464 9.50877 8.09589 9.24844 8.02643C8.99136 7.967 8.72095 8.00867 8.49443 8.14262C8.2679 8.27658 8.10302 8.49231 8.03466 8.74418C7.96631 8.99605 7.99985 9.26431 8.12818 9.4922C8.25651 9.72008 8.46958 9.88973 8.72229 9.96524H8.71806Z" fill="#B9B8B8"/>
</g>
<defs>
<clipPath id="clip0_629_1345">
<rect width="18" height="18" fill="white"/>
</clipPath>
</defs>
</svg>
