<svg width="24" height="24" viewBox="0 0 24 24" fill="none" xmlns="http://www.w3.org/2000/svg">
<path d="M6.39286 2.7188C6.36924 2.71901 6.34565 2.72041 6.32217 2.723C6.14909 2.74265 5.98956 2.82613 5.87475 2.95712C5.75994 3.08811 5.6981 3.2572 5.7013 3.43136V4.4799H4.65276C4.46693 4.4799 4.28872 4.55372 4.15732 4.68512C4.02592 4.81651 3.9521 4.99473 3.9521 5.18056C3.9521 5.36639 4.02592 5.5446 4.15732 5.676C4.28872 5.8074 4.46693 5.88122 4.65276 5.88122H5.7013V6.92976C5.7013 7.1154 5.77505 7.29344 5.90631 7.42471C6.03758 7.55597 6.21562 7.62972 6.40126 7.62972C6.5869 7.62972 6.76494 7.55597 6.89621 7.42471C7.02748 7.29344 7.10122 7.1154 7.10122 6.92976V5.88122H8.14976C8.33559 5.88122 8.5138 5.8074 8.6452 5.676C8.7766 5.5446 8.85042 5.36639 8.85042 5.18056C8.85042 4.99473 8.7766 4.81651 8.6452 4.68512C8.5138 4.55372 8.33559 4.4799 8.14976 4.4799H7.10122V3.43136C7.10291 3.33767 7.08578 3.2446 7.05084 3.15766C7.01589 3.07072 6.96384 2.99168 6.89778 2.92522C6.83172 2.85877 6.75299 2.80626 6.66626 2.77081C6.57952 2.73535 6.48656 2.71766 6.39286 2.7188ZM12.6925 2.7188C12.6684 2.71896 12.6443 2.72036 12.6204 2.723C12.4473 2.74265 12.2878 2.82613 12.173 2.95712C12.0582 3.08811 11.9963 3.2572 11.9995 3.43136V4.4799H10.951C10.7652 4.4799 10.587 4.55372 10.4556 4.68512C10.3242 4.81651 10.2503 4.99473 10.2503 5.18056C10.2503 5.36639 10.3242 5.5446 10.4556 5.676C10.587 5.8074 10.7652 5.88122 10.951 5.88122H11.9995V6.92976C11.9995 7.1154 12.0733 7.29344 12.2046 7.42471C12.3358 7.55597 12.5139 7.62972 12.6995 7.62972C12.8851 7.62972 13.0632 7.55597 13.1944 7.42471C13.3257 7.29344 13.3995 7.1154 13.3995 6.92976V5.88122H14.455C14.6408 5.88122 14.819 5.8074 14.9504 5.676C15.0818 5.5446 15.1557 5.36639 15.1557 5.18056C15.1557 4.99473 15.0818 4.81651 14.9504 4.68512C14.819 4.55372 14.6408 4.4799 14.455 4.4799H13.3995V3.43136C13.4011 3.33779 13.3841 3.24484 13.3492 3.15799C13.3143 3.07114 13.2624 2.99216 13.1965 2.92573C13.1306 2.8593 13.052 2.80676 12.9655 2.77122C12.8789 2.73567 12.7861 2.71785 12.6925 2.7188ZM2.1931 5.17006C2.10058 5.17097 2.00916 5.19021 1.92412 5.22667C1.83909 5.26313 1.76212 5.31609 1.69768 5.38248C1.63324 5.44887 1.5826 5.52739 1.5487 5.61347C1.51479 5.69956 1.49829 5.79151 1.50014 5.88402V20.579C1.50014 20.7648 1.57396 20.943 1.70536 21.0744C1.83676 21.2058 2.01498 21.2796 2.2008 21.2796C2.38663 21.2796 2.56484 21.2058 2.69624 21.0744C2.82764 20.943 2.90146 20.7648 2.90146 20.579V19.1777H4.30138V20.579C4.30101 20.6714 4.31894 20.7629 4.35412 20.8483C4.38931 20.9338 4.44106 21.0114 4.50639 21.0767C4.57172 21.1421 4.64934 21.1938 4.73477 21.229C4.8202 21.2642 4.91175 21.2821 5.00414 21.2817H11.3024C11.3943 21.2814 11.4852 21.2629 11.57 21.2274C11.6548 21.1919 11.7318 21.14 11.7965 21.0747C11.8612 21.0095 11.9125 20.9321 11.9473 20.8471C11.9822 20.762 11.9999 20.6709 11.9995 20.579V19.1777H21.1046C21.8676 19.1777 22.4989 18.547 22.4989 17.7833V9.38102C22.4989 8.61806 21.8683 7.9811 21.1046 7.9811H2.90146V5.88402C2.90335 5.79021 2.88635 5.69699 2.85149 5.60988C2.81663 5.52278 2.76461 5.44358 2.69853 5.37697C2.63245 5.31037 2.55366 5.25773 2.46683 5.22219C2.38 5.18664 2.28692 5.16892 2.1931 5.17006ZM6.96473 10.0866C6.84393 10.1093 6.73125 10.1635 6.63802 10.2436C6.54479 10.3237 6.4743 10.4269 6.43365 10.543C6.393 10.659 6.3836 10.7836 6.40643 10.9044C6.42925 11.0252 6.48348 11.1378 6.56365 11.231C6.88004 11.609 7.06762 11.9338 7.09562 12.1564C7.11242 12.2851 7.09842 12.4223 7.00042 12.6022C6.50345 12.2796 5.98269 12.134 5.49551 12.197C4.80395 12.2865 4.29158 12.6771 3.85131 13.0446C3.72481 13.1506 3.63979 13.2978 3.61122 13.4604C3.67422 11.6377 5.14413 10.158 6.96403 10.0866H6.96473ZM7.22581 10.0866C9.09331 10.1531 10.6052 11.6993 10.6052 13.5822C10.6052 15.5071 9.02611 17.0806 7.10122 17.0806C5.21623 17.0806 3.67422 15.5701 3.61122 13.6998C3.63189 13.8213 3.68424 13.9352 3.763 14.03C3.84176 14.1248 3.94414 14.1972 4.05979 14.2398C4.17545 14.2824 4.3003 14.2937 4.42174 14.2726C4.54317 14.2515 4.65691 14.1988 4.75145 14.1197C5.12943 13.8034 5.45281 13.6158 5.6754 13.5878C5.80489 13.571 5.94418 13.5864 6.12547 13.6858C5.80139 14.1827 5.6537 14.7007 5.7167 15.1886C5.80559 15.8794 6.19617 16.3918 6.56365 16.8321C6.68284 16.9747 6.85377 17.064 7.03886 17.0806C7.22395 17.0971 7.40802 17.0395 7.55059 16.9203C7.69317 16.8011 7.78255 16.6302 7.79909 16.4451C7.81563 16.26 7.75797 16.0759 7.63879 15.9333C7.32241 15.5554 7.13482 15.2306 7.10682 15.008C7.08932 14.8736 7.10822 14.728 7.22161 14.5362C7.72138 14.875 8.24495 15.0269 8.73912 14.9618C9.42369 14.8708 9.91786 14.483 10.3525 14.1197C10.4951 14.0004 10.5844 13.8293 10.6008 13.644C10.6172 13.4588 10.5594 13.2747 10.44 13.1321C10.3207 12.9895 10.1495 12.9002 9.96433 12.8838C9.77911 12.8674 9.59496 12.9252 9.45239 13.0446C9.06951 13.3652 8.75522 13.55 8.55294 13.5766C8.42834 13.5934 8.28905 13.5752 8.09516 13.4562C8.40734 12.9669 8.54804 12.4559 8.48644 11.9758C8.39684 11.2849 8.00627 10.7718 7.63879 10.3323C7.53443 10.2042 7.38815 10.1172 7.22581 10.0866ZM16.7873 10.0866C16.6665 10.1094 16.5539 10.1636 16.4608 10.2438C16.3676 10.3239 16.2972 10.4272 16.2567 10.5432C16.2161 10.6592 16.2068 10.7838 16.2296 10.9046C16.2525 11.0253 16.3067 11.1379 16.3869 11.231C16.7026 11.609 16.8895 11.9338 16.9189 12.1564C16.935 12.2851 16.9196 12.4223 16.8202 12.6022C16.3239 12.2803 15.8052 12.134 15.3173 12.197C14.6265 12.2865 14.1141 12.6771 13.6745 13.0446C13.5547 13.1384 13.4687 13.2686 13.4296 13.4156C13.4743 12.5423 13.8432 11.717 14.4642 11.1013C15.0852 10.4856 15.9136 10.1238 16.7873 10.0866ZM17.0483 10.0866C17.9145 10.1203 18.7374 10.4736 19.3585 11.0783C19.9795 11.6829 20.3547 12.4961 20.4117 13.361C20.3772 13.2487 20.3151 13.1468 20.2309 13.0649C20.1468 12.9829 20.0434 12.9234 19.9302 12.8919C19.8171 12.8603 19.6978 12.8578 19.5834 12.8845C19.469 12.9112 19.3632 12.9663 19.2756 13.0446C18.892 13.3652 18.5778 13.55 18.3755 13.5766C18.2502 13.5934 18.1095 13.5752 17.9135 13.4534C18.2264 12.9648 18.3706 12.4552 18.309 11.9758C18.2194 11.2849 17.8295 10.7718 17.4613 10.3323C17.357 10.2042 17.2107 10.1172 17.0483 10.0866ZM7.10262 12.8808C7.4848 12.8808 7.80258 13.1986 7.80258 13.5808C7.80258 13.963 7.4848 14.2779 7.10262 14.2779C6.72044 14.2779 6.40546 13.963 6.40546 13.5808C6.40546 13.1986 6.72044 12.8808 7.10262 12.8808ZM16.9238 12.8808C17.3059 12.8808 17.6237 13.1986 17.6237 13.5808C17.6237 13.963 17.3059 14.2779 16.9238 14.2779C16.5416 14.2779 16.2252 13.963 16.2252 13.5808C16.2252 13.1986 16.5416 12.8808 16.9238 12.8808ZM15.4979 13.5878C15.6267 13.571 15.7653 13.585 15.9452 13.683C15.6218 14.1799 15.4762 14.7 15.5392 15.1879C15.6281 15.8794 16.0187 16.3918 16.3862 16.8321C16.4452 16.9027 16.5175 16.961 16.5991 17.0036C16.6806 17.0462 16.7697 17.0724 16.8614 17.0806C16.953 17.0888 17.0454 17.0788 17.1332 17.0513C17.221 17.0238 17.3025 16.9793 17.3731 16.9203C17.4437 16.8613 17.502 16.7889 17.5446 16.7074C17.5873 16.6259 17.6134 16.5367 17.6216 16.4451C17.6298 16.3534 17.6199 16.2611 17.5924 16.1733C17.5649 16.0855 17.5203 16.0039 17.4613 15.9333C17.1449 15.5554 16.9581 15.2306 16.9294 15.008C16.9119 14.8736 16.9294 14.7294 17.0399 14.5376C17.5397 14.8757 18.0619 15.0276 18.5561 14.9618C19.2406 14.8708 19.739 14.483 20.173 14.1197C20.2875 14.0304 20.3714 13.9076 20.4131 13.7684C20.3151 15.6065 18.7856 17.0806 16.9238 17.0806C15.0675 17.0806 13.5374 15.6156 13.431 13.7845C13.4627 13.8992 13.5232 14.0039 13.6067 14.0888C13.6902 14.1736 13.794 14.2358 13.9082 14.2693C14.0224 14.3029 14.1433 14.3068 14.2594 14.2806C14.3756 14.2544 14.4831 14.1991 14.5719 14.1197C14.9499 13.8034 15.2754 13.6158 15.4979 13.5878Z" fill="#B9B8B8"/>
</svg>
