<svg width="79" height="60" viewBox="0 0 79 60" fill="none" xmlns="http://www.w3.org/2000/svg">
<path d="M29.6229 19.545C36.1819 19.545 42.1607 24.705 42.4115 24.925C42.8983 25.359 43.1971 25.9708 43.243 26.6274C43.2889 27.2841 43.0783 27.9327 42.6568 28.4324C42.2354 28.9321 41.6371 29.2426 40.9919 29.2964C40.3466 29.3503 39.7066 29.1431 39.2107 28.72C39.1615 28.68 34.343 24.55 29.6229 24.55C29.5836 24.545 29.5393 24.56 29.5 24.56V34.92C30.5129 35.23 31.5946 35.45 32.8188 35.45C39.84 35.45 48.1395 29.695 53.1202 25.265C47.5643 20.615 38.124 15 31.2209 15C30.6604 15 30.0802 15.07 29.5 15.14V19.555L29.6229 19.545Z" fill="#4CAF50"/>
<path d="M76.2085 0H31.9575C31.3054 0 30.6801 0.263393 30.2191 0.732234C29.7581 1.20107 29.4991 1.83696 29.4991 2.5V10.125C30.0743 10.07 30.6496 10 31.2199 10C40.9945 10 53.1291 18.23 58.4786 23.42C58.9654 23.885 59.2358 24.535 59.2407 25.21C59.2456 25.885 58.9752 26.54 58.5032 27.015C57.1216 28.39 44.6673 40.455 32.813 40.455C31.628 40.455 30.5365 40.31 29.4941 40.1V44.725C30.0989 44.865 30.6988 45 31.2199 45C38.0739 45 58.2918 39.315 64.6541 32.985C65.1222 32.5317 65.7471 32.2842 66.3933 32.296C67.0396 32.3077 67.6553 32.5779 68.1072 33.0479C68.5591 33.5179 68.8107 34.15 68.8077 34.8074C68.8046 35.4647 68.5471 36.0943 68.0909 36.56C60.4306 44.19 39.018 50 31.2199 50C30.6742 50 30.0743 49.83 29.4991 49.74V57.5C29.4991 58.163 29.7581 58.7989 30.2191 59.2678C30.6801 59.7366 31.3054 60 31.9575 60H76.2085C76.8605 60 77.4858 59.7366 77.9469 59.2678C78.4079 58.7989 78.6669 58.163 78.6669 57.5V2.5C78.6669 1.83696 78.4079 1.20107 77.9469 0.732234C77.4858 0.263393 76.8605 0 76.2085 0Z" fill="#4CAF50"/>
<path d="M21.4698 27.6347C23.2399 26.4197 26.3964 24.6097 29.4989 24.5597V19.5547C22.9842 19.6197 17.0841 24.7047 16.8333 24.9197C16.4612 25.2447 16.1935 25.6757 16.0647 26.1569C15.9358 26.6382 15.9518 27.1477 16.1105 27.6197C16.2679 28.0997 19.7834 38.1547 29.4989 40.0997V34.9247C25.0935 33.5847 22.581 29.8397 21.4698 27.6347Z" fill="#4CAF50"/>
<path d="M6.26758 26.045C8.03762 25.08 9.847 24.035 11.6613 22.98C17.7729 19.435 24.0663 15.815 29.4994 15.14V10.125C22.906 10.745 15.9635 14.73 9.22748 18.64C6.55767 20.185 3.92227 21.715 1.37537 22.98C1.04763 23.1446 0.759924 23.3811 0.533039 23.6726C0.306153 23.964 0.145752 24.3031 0.0634227 24.6652C-0.0189067 25.0274 -0.0211091 25.4036 0.0569745 25.7667C0.135058 26.1299 0.291478 26.4708 0.514936 26.765C8.86856 37.62 20.7426 48.435 29.4994 49.74V44.725C23.6877 43.41 14.395 35.975 6.26758 26.045Z" fill="#4CAF50"/>
</svg>
