<svg width="35" height="35" viewBox="0 0 35 35" fill="none" xmlns="http://www.w3.org/2000/svg">
<circle cx="17.5" cy="17.5" r="17.5" fill="#FAFAFA"/>
<g clip-path="url(#clip0_629_5179)">
<path d="M17.3 17.22C17.8336 16.7581 18.2616 16.1869 18.5549 15.545C18.8482 14.9032 19 14.2057 19 13.5C19 12.1739 18.4732 10.9021 17.5355 9.96447C16.5979 9.02678 15.3261 8.5 14 8.5C12.6739 8.5 11.4021 9.02678 10.4645 9.96447C9.52678 10.9021 9 12.1739 9 13.5C8.99999 14.2057 9.1518 14.9032 9.44513 15.545C9.73845 16.1869 10.1664 16.7581 10.7 17.22C9.30014 17.8539 8.11247 18.8775 7.27898 20.1685C6.4455 21.4596 6.00147 22.9633 6 24.5C6 24.7652 6.10536 25.0196 6.29289 25.2071C6.48043 25.3946 6.73478 25.5 7 25.5C7.26522 25.5 7.51957 25.3946 7.70711 25.2071C7.89464 25.0196 8 24.7652 8 24.5C8 22.9087 8.63214 21.3826 9.75736 20.2574C10.8826 19.1321 12.4087 18.5 14 18.5C15.5913 18.5 17.1174 19.1321 18.2426 20.2574C19.3679 21.3826 20 22.9087 20 24.5C20 24.7652 20.1054 25.0196 20.2929 25.2071C20.4804 25.3946 20.7348 25.5 21 25.5C21.2652 25.5 21.5196 25.3946 21.7071 25.2071C21.8946 25.0196 22 24.7652 22 24.5C21.9985 22.9633 21.5545 21.4596 20.721 20.1685C19.8875 18.8775 18.6999 17.8539 17.3 17.22V17.22ZM14 16.5C13.4067 16.5 12.8266 16.3241 12.3333 15.9944C11.8399 15.6648 11.4554 15.1962 11.2284 14.6481C11.0013 14.0999 10.9419 13.4967 11.0576 12.9147C11.1734 12.3328 11.4591 11.7982 11.8787 11.3787C12.2982 10.9591 12.8328 10.6734 13.4147 10.5576C13.9967 10.4419 14.5999 10.5013 15.1481 10.7284C15.6962 10.9554 16.1648 11.3399 16.4944 11.8333C16.8241 12.3266 17 12.9067 17 13.5C17 14.2956 16.6839 15.0587 16.1213 15.6213C15.5587 16.1839 14.7956 16.5 14 16.5ZM23.74 16.82C24.38 16.0993 24.798 15.2091 24.9438 14.2563C25.0896 13.3036 24.9569 12.3291 24.5618 11.45C24.1666 10.5709 23.5258 9.8248 22.7165 9.30142C21.9071 8.77805 20.9638 8.49974 20 8.5C19.7348 8.5 19.4804 8.60536 19.2929 8.79289C19.1054 8.98043 19 9.23478 19 9.5C19 9.76522 19.1054 10.0196 19.2929 10.2071C19.4804 10.3946 19.7348 10.5 20 10.5C20.7956 10.5 21.5587 10.8161 22.1213 11.3787C22.6839 11.9413 23 12.7044 23 13.5C22.9986 14.0252 22.8593 14.5409 22.5961 14.9954C22.3328 15.4499 21.9549 15.8274 21.5 16.09C21.3517 16.1755 21.2279 16.2977 21.1404 16.4447C21.0528 16.5918 21.0045 16.7589 21 16.93C20.9958 17.0998 21.0349 17.2678 21.1137 17.4183C21.1924 17.5687 21.3081 17.6967 21.45 17.79L21.84 18.05L21.97 18.12C23.1754 18.6917 24.1923 19.596 24.901 20.7263C25.6096 21.8566 25.9805 23.1659 25.97 24.5C25.97 24.7652 26.0754 25.0196 26.2629 25.2071C26.4504 25.3946 26.7048 25.5 26.97 25.5C27.2352 25.5 27.4896 25.3946 27.6771 25.2071C27.8646 25.0196 27.97 24.7652 27.97 24.5C27.9782 22.9654 27.5938 21.4543 26.8535 20.1101C26.1131 18.7659 25.0413 17.6333 23.74 16.82V16.82Z" fill="black"/>
</g>
<defs>
<clipPath id="clip0_629_5179">
<rect width="22" height="18" fill="white" transform="translate(6 8)"/>
</clipPath>
</defs>
</svg>
