<svg width="30" height="30" viewBox="0 0 30 30" fill="none" xmlns="http://www.w3.org/2000/svg">
<circle cx="15" cy="15" r="15" fill="#6974C9" fill-opacity="0.15"/>
<path d="M19.2 9H10.8C10.3226 9 9.86477 9.18964 9.52721 9.52721C9.18964 9.86477 9 10.3226 9 10.8V16.8C9 17.2774 9.18964 17.7352 9.52721 18.0728C9.86477 18.4104 10.3226 18.6 10.8 18.6H12.6V19.8H10.8C10.6409 19.8 10.4883 19.8632 10.3757 19.9757C10.2632 20.0883 10.2 20.2409 10.2 20.4C10.2 20.5591 10.2632 20.7117 10.3757 20.8243C10.4883 20.9368 10.6409 21 10.8 21H19.2C19.3591 21 19.5117 20.9368 19.6243 20.8243C19.7368 20.7117 19.8 20.5591 19.8 20.4C19.8 20.2409 19.7368 20.0883 19.6243 19.9757C19.5117 19.8632 19.3591 19.8 19.2 19.8H17.4V18.6H19.2C19.6774 18.6 20.1352 18.4104 20.4728 18.0728C20.8104 17.7352 21 17.2774 21 16.8V10.8C21 10.3226 20.8104 9.86477 20.4728 9.52721C20.1352 9.18964 19.6774 9 19.2 9ZM16.2 19.8H13.8V18.6H16.2V19.8ZM19.8 16.8C19.8 16.9591 19.7368 17.1117 19.6243 17.2243C19.5117 17.3368 19.3591 17.4 19.2 17.4H10.8C10.6409 17.4 10.4883 17.3368 10.3757 17.2243C10.2632 17.1117 10.2 16.9591 10.2 16.8V16.2H19.8V16.8ZM19.8 15H10.2V10.8C10.2 10.6409 10.2632 10.4883 10.3757 10.3757C10.4883 10.2632 10.6409 10.2 10.8 10.2H19.2C19.3591 10.2 19.5117 10.2632 19.6243 10.3757C19.7368 10.4883 19.8 10.6409 19.8 10.8V15Z" fill="#6974C9"/>
</svg>
